<svg width="20" height="20" viewBox="0 0 20 20" fill="none" xmlns="http://www.w3.org/2000/svg">
<path d="M19.7223 9.28057L18.8621 8.35039C18.2544 7.69324 17.9718 6.79905 18.0916 5.91202L18.2685 4.60191C18.3431 4.04995 17.9856 3.53599 17.4609 3.43899L16.3449 3.23424C15.4237 3.06523 14.6344 2.47575 14.2107 1.64052L13.6567 0.548205C13.4082 0.0572411 12.8299 -0.139745 12.352 0.105237L11.3662 0.609177C10.5086 1.04752 9.4928 1.04752 8.63527 0.609176L7.64941 0.105237C7.1715 -0.139745 6.59323 0.057241 6.34376 0.549205L5.78966 1.64213C5.36609 2.47759 4.5766 3.06726 3.65528 3.2363L2.53961 3.44099C2.01486 3.53699 1.65739 4.05095 1.73194 4.60291L1.90886 5.91301C2.02865 6.80005 1.7461 7.69424 1.13837 8.35139L0.278143 9.28156C-0.0927143 9.68254 -0.0927143 10.3175 0.278143 10.7185L1.13837 11.6486C1.7461 12.3058 2.02865 13.2 1.90886 14.087L1.73194 15.3971C1.65739 15.9491 2.01486 16.463 2.53961 16.56L3.65559 16.7648C4.57674 16.9338 5.36611 17.5233 5.78974 18.3585L6.34376 19.4508C6.59323 19.9428 7.1715 20.1398 7.65036 19.8948L8.63477 19.391C9.49256 18.952 10.509 18.9517 11.367 19.3903L12.352 19.8938C12.8309 20.1388 13.4082 19.9418 13.6586 19.4498L14.2126 18.3575C14.6363 17.5223 15.4257 16.9328 16.3468 16.7638L17.4628 16.559C17.9875 16.463 18.345 15.9481 18.2704 15.3961L18.0935 14.086C17.9737 13.199 18.2563 12.3048 18.864 11.6476L19.7242 10.7175C20.0922 10.3175 20.0922 9.68154 19.7223 9.28057ZM10.8964 12.4763C9.88762 13.5316 8.20218 13.5316 7.19342 12.4763L6.14698 11.3815C5.78598 11.0039 5.78598 10.409 6.14698 10.0314C6.53176 9.62885 7.17466 9.62885 7.55944 10.0314L7.94905 10.439C8.54611 11.0636 9.54369 11.0636 10.1407 10.439L13.3978 7.03161C13.7826 6.62907 14.4255 6.62907 14.8103 7.0316C15.1713 7.40926 15.1713 8.0041 14.8103 8.38176L10.8964 12.4763Z" fill="#237A57"/>
</svg>
