<svg width="17" height="27" viewBox="0 0 17 27" fill="none" xmlns="http://www.w3.org/2000/svg">
<path d="M5.55469 26.0747L16.207 12.3755C16.4062 12.1294 16.5117 11.895 16.5117 11.6255C16.5117 11.1802 16.1602 10.8403 15.668 10.8403H9.04688L12.5391 1.72316C13.0078 0.516127 11.7188 -0.140123 10.957 0.867689L0.304688 14.5552C0.105469 14.813 0 15.0474 0 15.3052C0 15.7622 0.351562 16.1021 0.84375 16.1021H7.46484L3.97266 25.2075C3.50391 26.4146 4.79297 27.0708 5.55469 26.0747ZM10.1719 14.356H2.92969L9.53906 5.57863L6.33984 12.5864H13.5703L6.96094 21.3638L10.1719 14.356Z" fill="#49516F"/>
</svg>
