<svg width="20" height="16" viewBox="0 0 20 16" fill="none" xmlns="http://www.w3.org/2000/svg">
<path d="M10.43 0.0997878C10.2676 0.0295299 10.0895 0.00361978 9.91379 0.0247017C9.73811 0.0457836 9.57116 0.113103 9.43 0.219788L4.65 3.99979H1C0.734784 3.99979 0.48043 4.10514 0.292893 4.29268C0.105357 4.48022 0 4.73457 0 4.99979V10.9998C0 11.265 0.105357 11.5194 0.292893 11.7069C0.48043 11.8944 0.734784 11.9998 1 11.9998H4.65L9.38 15.7798C9.55594 15.9209 9.77444 15.9985 10 15.9998C10.1494 16.0023 10.297 15.9679 10.43 15.8998C10.6002 15.8187 10.744 15.6912 10.8448 15.532C10.9457 15.3728 10.9995 15.1883 11 14.9998V0.999788C10.9995 0.811302 10.9457 0.626804 10.8448 0.467567C10.744 0.308329 10.6002 0.180836 10.43 0.0997878V0.0997878ZM9 12.9198L5.62 10.2198C5.44406 10.0786 5.22556 10.0011 5 9.99979H2V5.99979H5C5.22556 5.99848 5.44406 5.92095 5.62 5.77979L9 3.07979V12.9198ZM13.14 0.0897881C13.0087 0.071403 12.875 0.0790638 12.7467 0.112333C12.6183 0.145602 12.4977 0.203828 12.3919 0.283686C12.286 0.363545 12.1969 0.463471 12.1297 0.577761C12.0625 0.692051 12.0184 0.818466 12 0.949788C11.9816 1.08111 11.9893 1.21477 12.0225 1.34313C12.0558 1.47149 12.114 1.59204 12.1939 1.6979C12.3552 1.91169 12.5948 2.05266 12.86 2.08979C14.2762 2.30803 15.5676 3.02591 16.5004 4.11358C17.4333 5.20124 17.9462 6.58686 17.9462 8.01979C17.9462 9.45272 17.4333 10.8383 16.5004 11.926C15.5676 13.0137 14.2762 13.7315 12.86 13.9498C12.5948 13.9684 12.3478 14.0915 12.1734 14.2922C11.999 14.4928 11.9114 14.7546 11.93 15.0198C11.9486 15.285 12.0717 15.532 12.2724 15.7064C12.4731 15.8808 12.7348 15.9684 13 15.9498H13.14C15.0328 15.6634 16.7602 14.7078 18.0086 13.2564C19.2569 11.8051 19.9434 9.95416 19.9434 8.03979C19.9434 6.12542 19.2569 4.27451 18.0086 2.82313C16.7602 1.37175 15.0328 0.416135 13.14 0.129788V0.0897881ZM12.68 9.86979C12.4148 9.91222 12.1773 10.0583 12.0198 10.2758C11.8622 10.4934 11.7976 10.7646 11.84 11.0298C11.8824 11.295 12.0285 11.5325 12.246 11.69C12.4636 11.8476 12.7348 11.9122 13 11.8698C13.1085 11.8686 13.2163 11.8517 13.32 11.8198C14.099 11.5436 14.7733 11.0328 15.2502 10.3577C15.7271 9.68258 15.9832 8.87633 15.9832 8.04979C15.9832 7.22324 15.7271 6.41699 15.2502 5.7419C14.7733 5.06681 14.099 4.55602 13.32 4.27979C13.068 4.19492 12.7927 4.21361 12.5545 4.33176C12.3164 4.44991 12.1349 4.65783 12.05 4.90979C11.9651 5.16174 11.9838 5.43709 12.102 5.67526C12.2201 5.91344 12.428 6.09492 12.68 6.17979C13.0595 6.32372 13.3862 6.57969 13.6167 6.9137C13.8472 7.2477 13.9707 7.64394 13.9707 8.04979C13.9707 8.45563 13.8472 8.85187 13.6167 9.18588C13.3862 9.51989 13.0595 9.77586 12.68 9.91979V9.86979Z" fill="#49516F"/>
</svg>
