<svg width="18" height="21" viewBox="0 0 18 21" fill="none" xmlns="http://www.w3.org/2000/svg">
<path d="M17.4701 6.37005C17.4701 6.37005 17.4701 6.37005 17.4701 6.29005L17.4101 6.14005C17.3893 6.10822 17.3659 6.07812 17.3401 6.05005C17.3134 6.00772 17.2833 5.96759 17.2501 5.93005L17.1601 5.86005L17.0001 5.78005L9.50014 1.15005C9.34121 1.05072 9.15757 0.998047 8.97015 0.998047C8.78273 0.998047 8.59908 1.05072 8.44014 1.15005L1.00014 5.78005L0.910145 5.86005L0.820145 5.93005C0.786996 5.96759 0.756901 6.00772 0.730145 6.05005C0.704437 6.07812 0.681028 6.10822 0.660145 6.14005L0.600145 6.29005C0.600145 6.29005 0.600145 6.29005 0.600145 6.37005C0.590316 6.45644 0.590316 6.54366 0.600145 6.63005V15.3701C0.599805 15.54 0.642781 15.7072 0.725016 15.8559C0.807251 16.0047 0.926032 16.13 1.07015 16.22L8.57014 20.85C8.61631 20.8786 8.66706 20.8989 8.72015 20.91C8.72015 20.91 8.77015 20.91 8.80015 20.91C8.96933 20.9637 9.15096 20.9637 9.32014 20.91C9.32014 20.91 9.37014 20.91 9.40014 20.91C9.45323 20.8989 9.50398 20.8786 9.55015 20.85V20.85L17.0001 16.22C17.1443 16.13 17.263 16.0047 17.3453 15.8559C17.4275 15.7072 17.4705 15.54 17.4701 15.3701V6.63005C17.48 6.54366 17.48 6.45644 17.4701 6.37005V6.37005ZM8.00014 18.21L2.50014 14.8101V8.43005L8.00014 11.82V18.21ZM9.00014 10.09L3.40015 6.63005L9.00014 3.18005L14.6001 6.63005L9.00014 10.09ZM15.5001 14.8101L10.0001 18.21V11.82L15.5001 8.43005V14.8101Z" fill="#49516F"/>
</svg>
