<svg width="19" height="16" viewBox="0 0 19 16" fill="none" xmlns="http://www.w3.org/2000/svg">
<path d="M9.49926 10.4599C8.98236 10.4599 8.47706 10.6132 8.04728 10.9003C7.61749 11.1875 7.28251 11.5957 7.0847 12.0732C6.88689 12.5508 6.83514 13.0763 6.93598 13.5833C7.03682 14.0902 7.28573 14.5559 7.65124 14.9214C8.01674 15.2869 8.48242 15.5358 8.98939 15.6367C9.49636 15.7375 10.0218 15.6858 10.4994 15.4879C10.977 15.2901 11.3851 14.9552 11.6723 14.5254C11.9595 14.0956 12.1128 13.5903 12.1128 13.0734C12.1128 12.3802 11.8374 11.7155 11.3473 11.2254C10.8572 10.7352 10.1924 10.4599 9.49926 10.4599ZM9.49926 13.9446C9.32696 13.9446 9.15853 13.8935 9.01526 13.7977C8.872 13.702 8.76034 13.566 8.69441 13.4068C8.62847 13.2476 8.61122 13.0724 8.64483 12.9034C8.67845 12.7344 8.76142 12.5792 8.88325 12.4574C9.00509 12.3355 9.16031 12.2526 9.3293 12.219C9.49829 12.1853 9.67345 12.2026 9.83264 12.2685C9.99182 12.3345 10.1279 12.4461 10.2236 12.5894C10.3193 12.7327 10.3704 12.9011 10.3704 13.0734C10.3704 13.3044 10.2786 13.526 10.1153 13.6894C9.95189 13.8528 9.7303 13.9446 9.49926 13.9446ZM9.49926 6.97524C7.88302 6.98081 6.33393 7.62235 5.18699 8.76112C5.02474 8.92435 4.93366 9.14515 4.93366 9.3753C4.93366 9.60544 5.02474 9.82624 5.18699 9.98947C5.35022 10.1517 5.57101 10.2428 5.80116 10.2428C6.03131 10.2428 6.25211 10.1517 6.41533 9.98947C6.81995 9.58382 7.30062 9.26199 7.82981 9.0424C8.359 8.82281 8.92632 8.70978 9.49926 8.70978C10.0722 8.70978 10.6395 8.82281 11.1687 9.0424C11.6979 9.26199 12.1786 9.58382 12.5832 9.98947C12.744 10.1536 12.9632 10.2475 13.193 10.2508C13.3697 10.261 13.5454 10.2171 13.6966 10.1249C13.8477 10.0327 13.9672 9.89669 14.0391 9.7349C14.111 9.57312 14.1319 9.39326 14.0991 9.21929C14.0662 9.04533 13.9811 8.88551 13.8551 8.76112C13.2819 8.192 12.6022 7.74135 11.8548 7.43493C11.1074 7.1285 10.307 6.9723 9.49926 6.97524ZM9.49926 3.49058C6.95893 3.49733 4.52367 4.50524 2.7216 6.29573C2.64037 6.37696 2.57594 6.47338 2.53198 6.57951C2.48802 6.68564 2.4654 6.79939 2.4654 6.91426C2.4654 7.14625 2.55755 7.36874 2.7216 7.53278C2.88564 7.69683 3.10813 7.78898 3.34012 7.78898C3.57212 7.78898 3.79461 7.69683 3.95865 7.53278C5.42874 6.06452 7.42152 5.23981 9.49926 5.23981C11.577 5.23981 13.5698 6.06452 15.0399 7.53278C15.1213 7.61352 15.2178 7.6774 15.3239 7.72075C15.4301 7.76411 15.5437 7.78608 15.6584 7.78542C15.773 7.78608 15.8867 7.76411 15.9928 7.72075C16.099 7.6774 16.1955 7.61352 16.2769 7.53278C16.3586 7.4518 16.4234 7.35544 16.4676 7.24929C16.5118 7.14313 16.5346 7.02926 16.5346 6.91426C16.5346 6.79925 16.5118 6.68539 16.4676 6.57923C16.4234 6.47307 16.3586 6.37672 16.2769 6.29573C14.4748 4.50524 12.0396 3.49733 9.49926 3.49058ZM18.7423 3.83033C17.5288 2.61602 16.0879 1.65273 14.5019 0.995503C12.9159 0.338277 11.216 0 9.49926 0C7.78251 0 6.08258 0.338277 4.49662 0.995503C2.91066 1.65273 1.46974 2.61602 0.256202 3.83033C0.0921586 3.99438 0 4.21687 0 4.44886C0 4.68085 0.0921586 4.90334 0.256202 5.06739C0.420246 5.23143 0.642736 5.32359 0.874729 5.32359C1.10672 5.32359 1.32921 5.23143 1.49326 5.06739C3.61696 2.94478 6.49666 1.75241 9.49926 1.75241C12.5019 1.75241 15.3816 2.94478 17.5053 5.06739C17.5862 5.14904 17.6826 5.21385 17.7888 5.25808C17.8949 5.30231 18.0088 5.32508 18.1238 5.32508C18.2388 5.32508 18.3527 5.30231 18.4588 5.25808C18.565 5.21385 18.6613 5.14904 18.7423 5.06739C18.824 4.9864 18.8888 4.89005 18.933 4.78389C18.9772 4.67773 19 4.56387 19 4.44886C19 4.33386 18.9772 4.21999 18.933 4.11383C18.8888 4.00767 18.824 3.91132 18.7423 3.83033V3.83033Z" fill="#49516F"/>
</svg>
