<svg width="13" height="8" viewBox="0 0 13 8" fill="none" xmlns="http://www.w3.org/2000/svg">
<path d="M11.2458 1.29079C11.0584 1.10454 10.805 1 10.5408 1C10.2766 1 10.0232 1.10454 9.8358 1.29079L6.2458 4.83079L2.7058 1.29079C2.51844 1.10454 2.26498 1 2.0008 1C1.73661 1 1.48316 1.10454 1.2958 1.29079C1.20207 1.38376 1.12768 1.49436 1.07691 1.61622C1.02614 1.73807 1 1.86878 1 2.00079C1 2.1328 1.02614 2.26351 1.07691 2.38537C1.12768 2.50723 1.20207 2.61783 1.2958 2.71079L5.5358 6.95079C5.62876 7.04452 5.73936 7.11891 5.86122 7.16968C5.98308 7.22045 6.11379 7.24659 6.2458 7.24659C6.37781 7.24659 6.50852 7.22045 6.63037 7.16968C6.75223 7.11891 6.86283 7.04452 6.9558 6.95079L11.2458 2.71079C11.3395 2.61783 11.4139 2.50723 11.4647 2.38537C11.5155 2.26351 11.5416 2.1328 11.5416 2.00079C11.5416 1.86878 11.5155 1.73807 11.4647 1.61622C11.4139 1.49436 11.3395 1.38376 11.2458 1.29079Z" fill="#49516F" stroke="#49516F"/>
</svg>
