<svg width="35" height="32" viewBox="0 0 35 32" fill="none" xmlns="http://www.w3.org/2000/svg">
<path d="M29.6479 5.09554L29.6454 5.09306C27.8949 3.33807 25.5746 2.26693 23.1035 2.07311C21.1025 1.91617 19.1094 2.34289 17.3601 3.2865C15.4985 2.2606 13.3549 1.82652 11.2198 2.06296C8.6156 2.35133 6.21742 3.61571 4.50816 5.60147C2.79889 7.58723 1.90551 10.1469 2.00792 12.765C2.11027 15.3815 3.19964 17.8622 5.0568 19.708C5.05789 19.7091 5.05898 19.7102 5.06007 19.7113L13.334 27.9985L13.3402 28.0047L13.3464 28.0109C14.4139 29.0614 15.8516 29.6502 17.3493 29.6502C18.847 29.6502 20.2847 29.0614 21.3522 28.0109L21.3585 28.0047L21.3647 27.9985L29.6447 19.7052L29.6479 19.702C31.5771 17.761 32.6599 15.1354 32.6599 12.3988C32.6599 9.66208 31.5771 7.03657 29.6479 5.09554Z" fill="#FF477E" stroke="white" stroke-width="4"/>
</svg>
